<svg id="Capa_1" enable-background="new 0 0 497 497" height="512" viewBox="0 0 497 497" width="512" xmlns="http://www.w3.org/2000/svg"><g><path d="m8.787 51.213 21.213-21.213 197.287 218.5-94.631-37.853c-7.544-3.018-14.397-7.537-20.143-13.282l-103.726-103.725c-11.716-11.716-11.716-30.711 0-42.427z" fill="#c75b31"/><path d="m133.726 176.152-103.726-103.726c-11.716-11.715-11.716-30.71 0-42.426l21.213-21.213c11.716-11.716 30.711-11.716 42.426 0l103.726 103.726c5.746 5.746 10.264 12.598 13.282 20.143l37.853 94.631 233.5 233.5-21.213 21.213-233.5-233.5-75.705-56.779c-6.036-4.527-12.111-9.823-17.856-15.569z" fill="#e76c38"/><path d="m450.18 471.393 21.213-21.213 21.213 21.213-21.213 21.213c-5.858 5.858-15.355 5.858-21.213 0-5.858-5.857-5.858-15.355 0-21.213z" fill="#c75b31"/><ellipse cx="482" cy="460.787" fill="#e76c38" rx="15" ry="15" transform="matrix(.707 -.707 .707 .707 -184.651 475.787)"/><path d="m488.213 51.213-21.213-21.213-197.287 218.5 94.631-37.853c7.544-3.018 14.397-7.537 20.143-13.282l103.726-103.725c11.716-11.716 11.716-30.711 0-42.427z" fill="#ff7b3d"/><path d="m363.274 176.152 103.726-103.726c11.716-11.716 11.716-30.711 0-42.426l-21.213-21.213c-11.716-11.716-30.711-11.716-42.426 0l-103.726 103.725c-5.746 5.746-10.264 12.598-13.282 20.143l-37.853 94.632-233.5 233.5 21.213 21.213 233.5-233.5 75.705-56.779c6.036-4.527 12.111-9.823 17.856-15.569z" fill="#ff9a42"/><path d="m46.82 471.393-21.213-21.213-21.214 21.213 21.213 21.213c5.858 5.858 15.355 5.858 21.213 0s5.859-15.355.001-21.213z" fill="#ff7b3d"/><ellipse cx="15" cy="460.787" fill="#ff9a42" rx="15" ry="15" transform="matrix(.707 -.707 .707 .707 -321.432 145.568)"/></g></svg>